<svg width="47" height="47" viewBox="0 0 47 47" fill="none" xmlns="http://www.w3.org/2000/svg">
<rect y="0.320312" width="46.6797" height="46.6797" rx="5.8621" fill="#F0F68D"/>
<path d="M31.767 18.1328C31.767 20.773 27.8145 22.914 22.9401 22.914C18.0657 22.914 14.1133 20.773 14.1133 18.1328C14.1133 15.4926 18.0657 13.3516 22.9401 13.3516C27.8145 13.3516 31.767 15.4926 31.767 18.1328Z" fill="#1B4B38"/>
<path d="M22.9401 24.3846C25.5735 24.3846 28.0303 23.8099 29.8819 22.8066C30.5634 22.4448 31.1899 21.9877 31.7424 21.4492C31.7581 21.5679 31.767 21.6885 31.767 21.8101C31.767 24.4503 27.8145 26.5913 22.9401 26.5913C18.0657 26.5913 14.1133 24.4503 14.1133 21.8101C14.1133 21.6885 14.1221 21.5679 14.1378 21.4492C14.6904 21.9877 15.3168 22.4448 15.9983 22.8066C17.849 23.8099 20.3068 24.3846 22.9401 24.3846Z" fill="#1B4B38"/>
<path d="M22.9401 28.0643C25.5735 28.0643 28.0303 27.4896 29.8819 26.4863C30.5634 26.1245 31.1899 25.6674 31.7424 25.1289C31.7581 25.2476 31.767 25.3682 31.767 25.4898C31.767 28.13 27.8145 30.271 22.9401 30.271C18.0657 30.271 14.1133 28.13 14.1133 25.4898C14.1133 25.3682 14.1221 25.2476 14.1378 25.1289C14.6904 25.6674 15.3168 26.1245 15.9983 26.4863C17.849 27.4896 20.3068 28.0643 22.9401 28.0643Z" fill="#1B4B38"/>
<path d="M22.9401 31.744C25.5735 31.744 28.0303 31.1693 29.8819 30.166C30.5634 29.8042 31.1899 29.3471 31.7424 28.8086C31.7581 28.9273 31.767 29.0479 31.767 29.1695C31.767 31.8097 27.8145 33.9507 22.9401 33.9507C18.0657 33.9507 14.1133 31.8097 14.1133 29.1695C14.1133 29.0479 14.1221 28.9273 14.1378 28.8086C14.6904 29.3471 15.3168 29.8041 15.9983 30.166C17.849 31.1693 20.3068 31.744 22.9401 31.744Z" fill="#1B4B38"/>
</svg>
